<svg xmlns="http://www.w3.org/2000/svg" id="map" width="10.996" height="17" viewBox="0 0 10.996 17">
    <g id="Group_3193" data-name="Group 3193">
        <path id="Path_5071" fill="#fff" d="M998.7-583.645c-.028-.214-.05-.429-.084-.641a9.673 9.673 0 0 0-.566-2.016 14.639 14.639 0 0 0-2.316-3.906c-.349-.427-.721-.835-1.089-1.246a5.282 5.282 0 0 1-1.313-2.673 5.388 5.388 0 0 1 1.232-4.586 5.444 5.444 0 0 1 3.1-1.819 5.189 5.189 0 0 1 3.135.318 5.289 5.289 0 0 1 3.325 4.062 5.279 5.279 0 0 1-1.168 4.541c-.319.391-.679.749-1 1.136a14.5 14.5 0 0 0-2.843 5.044 8.367 8.367 0 0 0-.318 1.493c-.012.1-.037.195-.057.292zm2.2-11.478a3.4 3.4 0 0 0-.042-.534 2.12 2.12 0 0 0-1.074-1.4 2.159 2.159 0 0 0-2.7.505 1.893 1.893 0 0 0-.47.91 8.149 8.149 0 0 0-.018.934.485.485 0 0 0 .02.137 2.248 2.248 0 0 0 .773 1.182 2.191 2.191 0 0 0 1.928.369 2.094 2.094 0 0 0 1.5-1.416 2.147 2.147 0 0 0 .075-.686z" data-name="Path 5071" transform="translate(-993.237 600.645)"/>
    </g>
</svg>
