<svg xmlns="http://www.w3.org/2000/svg" id="time" width="14.411" height="17" viewBox="0 0 14.411 17">
    <defs>
        <style>
            .cls-1{fill:#fff}
        </style>
    </defs>
    <g id="Group_3301" data-name="Group 3301">
        <path id="Path_5445" d="M129.674 1562.426a1.209 1.209 0 0 1-.523-1.7.7.7 0 0 1 .476-.248c.9-.023 1.8-.016 2.7 0a.557.557 0 0 1 .584.6v.418c0 .613-.064.709-.617.935v.714c.54.18 1.059.364 1.587.519a.392.392 0 0 0 .306-.127c.208-.221.385-.469.584-.7a.648.648 0 0 1 1.048-.111c.153.111.3.231.45.349.631.5.657.735.155 1.378-.147.188-.291.38-.419.548a19.931 19.931 0 0 1 1.216 1.706 7.2 7.2 0 1 1-8.205-3.354c.684-.193.684-.192.658-.927zm-2.962 4.884l.013-.013a3.106 3.106 0 0 0-.327.4 5.057 5.057 0 0 0-.6 3.441 5.253 5.253 0 1 0 2.059-5.058 9.28 9.28 0 0 0-1.145 1.229z" class="cls-1" data-name="Path 5445" transform="translate(-123.768 -1560.466)"/>
        <path id="Path_5446" d="M273.091 1922a2.127 2.127 0 0 1 .747.059c.931.449 1.836.954 2.762 1.415a1.965 1.965 0 0 0 .748.19 1.338 1.338 0 0 1 1.252.976 1.3 1.3 0 0 1-.762 1.526 1.2 1.2 0 0 1-1.567-.537c-.35-.785-1.084-1.139-1.657-1.672-.463-.43-.956-.828-1.434-1.241a.47.47 0 0 1-.075-.729z" class="cls-1" data-name="Path 5446" transform="translate(-270.146 -1915.154)"/>
    </g>
</svg>
